<svg id="svg" version="1.1" xmlns="http://www.w3.org/2000/svg" style="display: block;" viewBox="0 0 256 256"><path d="M0,0 L256,0 L256,256 L0,256 Z " transform="translate(0,0)" style="fill: #FBFCFC;"/><path d="M0,0 L88,0 L97,2 L108,6 L118,11 L129,20 L137,30 L143,43 L145,52 L145,75 L143,85 L135,101 L126,111 L115,119 L102,125 L91,128 L83,129 L48,129 L48,83 L80,82 L88,79 L92,73 L92,54 L87,49 L81,46 L34,45 L23,31 L9,13 L0,1 Z " transform="translate(72,48)" style="fill: #0A346A;"/><path d="M0,0 L117,0 L117,1 L99,4 L83,9 L67,16 L56,23 L42,34 L32,44 L21,59 L12,75 L6,91 L2,109 L1,117 L0,117 Z " transform="translate(0,0)" style="fill: #000000;"/><path d="M0,0 L1,0 L4,18 L9,34 L16,50 L23,61 L34,75 L44,85 L59,96 L75,105 L91,111 L109,115 L109,116 L0,116 Z " transform="translate(0,140)" style="fill: #000000;"/><path d="M0,0 L116,0 L116,109 L115,109 L110,88 L102,69 L94,56 L83,42 L73,32 L58,21 L42,12 L26,6 L8,2 L0,1 Z " transform="translate(140,0)" style="fill: #000000;"/><path d="M0,0 L1,0 L1,108 L-107,108 L-107,107 L-86,102 L-67,94 L-54,86 L-40,75 L-30,65 L-19,50 L-10,34 L-4,18 Z " transform="translate(255,148)" style="fill: #000000;"/><path d="M0,0 L20,0 L20,112 L0,112 Z " transform="translate(53,114)" style="fill: #0B346A;"/><path d="M0,0 L16,0 L16,63 L0,63 Z " transform="translate(88,114)" style="fill: #11396D;"/><path d="M0,0 L15,0 L15,36 L0,36 Z " transform="translate(89,190)" style="fill: #093267;"/></svg>